<svg xmlns="http://www.w3.org/2000/svg" version="1.1" xmlns:xlink="http://www.w3.org/1999/xlink" xmlns:svgjs="http://svgjs.dev/svgjs" viewBox="0 0 8.007907125105799 3.8620995171409915"><g transform="matrix(0.7961012507153947,0,0,0.7961012507153947,1.2101397541770385,1.3380530433426152)"><rect width="8.997074345293031" height="8.997074345293031" x="-0.9891672201872326" y="-3.753661172646515" fill="#262A2F#"></rect><g transform="matrix(-1,0,0,1,11.180019708629505,0)" clip-path="url(#SvgjsClipPath32222)"><g clip-path="url(#aa54cf7a5-c25f-4f72-9a87-9d2ca551c38120e79664-eec2-439b-9b32-f30194beecdb)"><path d=" M 4.539827030928325 -0.6480105324382418 L 4.307424520934939 -0.6480105324382418 C 4.307424520934939 -0.6480105324382418 4.204859419749575 -0.6480105324382418 4.204859419749575 -0.5266810223822805 L 4.204859419749575 -0.31231935793543236" fill="none" transform="matrix(1,0,0,1,0,0)" fill-rule="nonzero" stroke-dasharray="none" stroke-miterlimit="4" stroke-linejoin="miter" stroke-linecap="round" stroke-width="0.08715923207727463" stroke="#cccccc"></path></g><g clip-path="url(#aa54cf7a5-c25f-4f72-9a87-9d2ca551c38120e79664-eec2-439b-9b32-f30194beecdb)"><path d=" M 6.6401926777011795 -0.6480105324382418 L 6.872595187694566 -0.6480105324382418 C 6.872595187694566 -0.6480105324382418 6.9751602888799304 -0.6480105324382418 6.9751602888799304 -0.5266810223822805 L 6.9751602888799304 -0.31231935793543236" fill="none" transform="matrix(1,0,0,1,0,0)" fill-rule="nonzero" stroke-dasharray="none" stroke-miterlimit="4" stroke-linejoin="miter" stroke-linecap="round" stroke-width="0.08715923207727463" stroke="#cccccc"></path></g><g clip-path="url(#aa54cf7a5-c25f-4f72-9a87-9d2ca551c38120e79664-eec2-439b-9b32-f30194beecdb)"><path d=" M 6.6401926777011795 2.1377625324382423 L 6.872595187694566 2.1377625324382423 C 6.872595187694566 2.1377625324382423 6.9751602888799304 2.1377625324382423 6.9751602888799304 2.016433022382281 L 6.9751602888799304 1.8020713579354328" fill="none" transform="matrix(1,0,0,1,0,0)" fill-rule="nonzero" stroke-dasharray="none" stroke-miterlimit="4" stroke-linejoin="miter" stroke-linecap="round" stroke-width="0.08715923207727463" stroke="#cccccc"></path></g><g clip-path="url(#aa54cf7a5-c25f-4f72-9a87-9d2ca551c38120e79664-eec2-439b-9b32-f30194beecdb)"><path d=" M 4.539827030928325 2.1377625324382423 L 4.307424520934939 2.1377625324382423 C 4.307424520934939 2.1377625324382423 4.204859419749575 2.1377625324382423 4.204859419749575 2.016433022382281 L 4.204859419749575 1.8020713579354328" fill="none" transform="matrix(1,0,0,1,0,0)" fill-rule="nonzero" stroke-dasharray="none" stroke-miterlimit="4" stroke-linejoin="miter" stroke-linecap="round" stroke-width="0.08715923207727463" stroke="#cccccc"></path></g><g clip-path="url(#SvgjsClipPath3221720e79664-eec2-439b-9b32-f30194beecdb)"><path d=" M 4.402573098048698 1.9323067265716876 L 6.77744058088644 1.9323067265716876 L 6.77744058088644 -0.4425607562660539 L 4.402573098048698 -0.4425607562660539 Z" fill="#bab9b4" transform="matrix(1,0,0,1,0,0)" fill-rule="nonzero"></path></g><g clip-path="url(#da54cf7a5-c25f-4f72-9a87-9d2ca551c38120e79664-eec2-439b-9b32-f30194beecdb)"><path d=" M 4.566345626755088 1.3891036204231215 L 4.945547075811312 1.3891036204231215 L 4.945547075811312 1.76806388170466 L 4.566345626755088 1.76806388170466 Z M 5.021388571561431 1.8438511102054738 L 5.021388571561431 1.3133103622279407 L 4.490504131004969 1.3133103622279407 L 4.490504131004969 1.81858669080708 C 4.48978056768091 1.8305315153484207 4.489111271606156 1.842428102334824 4.498933643730257 1.8438511102054738 Z M 6.007321986618601 1.8438511102054738 L 6.159004978118839 1.8438511102054738 L 6.159004978118839 1.6922645938151113 L 6.007321986618601 1.6922645938151113 Z" fill="#000000" transform="matrix(1,0,0,1,0,0)" fill-rule="evenodd" opacity="0.75"></path></g><g clip-path="url(#da54cf7a5-c25f-4f72-9a87-9d2ca551c38120e79664-eec2-439b-9b32-f30194beecdb)"><path d=" M 4.642187122505206 1.6922645938151113 L 4.8697055800611935 1.6922645938151113 L 4.8697055800611935 1.4648908489239354 L 4.642187122505206 1.4648908489239354 Z M 5.1730655333673 1.5406841071191166 L 5.248907029117419 1.5406841071191166 L 5.248907029117419 1.4648908489239354 L 5.1730655333673 1.4648908489239354 Z M 6.158992918730104 1.3891036204231215 L 6.234828384785855 1.3891036204231215 L 6.234828384785855 1.3133103622279407 L 6.158992918730104 1.3133103622279407 Z M 4.490504131004969 1.2375171040327595 L 4.566345626755088 1.2375171040327595 L 4.566345626755088 1.1617238458375785 L 4.490504131004969 1.1617238458375785 Z M 4.642187122505206 1.2375171040327595 L 4.718028618255325 1.2375171040327595 L 4.718028618255325 1.1617238458375785 L 4.642187122505206 1.1617238458375785 Z M 4.793864084311076 1.2375171040327595 L 5.021388571561431 1.2375171040327595 L 5.021388571561431 1.1617238458375785 L 4.793864084311076 1.1617238458375785 Z M 4.945547075811312 1.0859366173367644 L 5.021388571561431 1.0859366173367644 L 5.021388571561431 1.0101433591415834 L 4.945547075811312 1.0101433591415834 Z M 6.3865174059804595 1.0859366173367644 L 6.462358901730577 1.0859366173367644 L 6.462358901730577 1.0101433591415834 L 6.3865174059804595 1.0101433591415834 Z" fill="#000000" transform="matrix(1,0,0,1,0,0)" fill-rule="evenodd" opacity="0.75"></path></g><g clip-path="url(#da54cf7a5-c25f-4f72-9a87-9d2ca551c38120e79664-eec2-439b-9b32-f30194beecdb)"><path d=" M 5.703956003618128 0.8585628724455887 L 5.6365440205932975 0.8585628724455887 C 5.6174178300606705 0.8495967169216241 5.633330193495602 0.805628185596305 5.62811450786801 0.7827696142504077 L 5.484854999398694 0.7827696142504077 C 5.468665270022873 0.7730015093756109 5.476805357418537 0.7468024873503076 5.476431516367773 0.7322468051479873 C 5.475219547799974 0.6850644467249729 5.477323911134112 0.6126236985979319 5.476431516367773 0.5553958693592316 L 5.4005900206176545 0.5553958693592316 L 5.4005900206176545 0.6311830978600455 L 5.105653550342469 0.6311830978600455 C 5.0865333895042095 0.6222290017248153 5.102451782633508 0.5782544407051291 5.097230067311549 0.5553958693592316 L 4.945541046116945 0.5553958693592316 L 4.945541046116945 0.6311830978600455 L 5.02138857156143 0.6311830978600455 L 5.02138857156143 0.7069763560552265 L 5.240483546086498 0.7069763560552265 C 5.259609736619124 0.715936481884824 5.243697373184194 0.7599170725988773 5.248907029117419 0.7827696142504077 L 5.3247545545619035 0.7827696142504077 L 5.3247545545619035 0.7069763560552265 L 5.4005900206176545 0.7069763560552265 L 5.4005900206176545 0.8585628724455887 L 5.476431516367773 0.8585628724455887 L 5.476431516367773 0.9343561306407695 L 5.61969102483709 0.9343561306407695 C 5.6388051559809815 0.9433102267759998 5.62289279254605 0.9872908174900532 5.62811450786801 1.0101433591415836 L 5.703956003618128 1.0101433591415836 Z" fill="#000000" transform="matrix(1,0,0,1,0,0)" fill-rule="evenodd" opacity="0.75"></path></g><g clip-path="url(#da54cf7a5-c25f-4f72-9a87-9d2ca551c38120e79664-eec2-439b-9b32-f30194beecdb)"><path d=" M 4.566345626755088 -0.27830585201029184 L 4.945547075811312 -0.27830585201029184 L 4.945547075811312 0.10065440927124647 L 4.566345626755088 0.10065440927124647 Z M 5.021388571561431 0.17644163777206046 L 5.021388571561431 -0.3540991102054726 L 4.490504131004969 -0.3540991102054726 L 4.490504131004969 0.1511772183736667 C 4.48978056768091 0.16312807260937479 4.489111271606156 0.17502465959577806 4.498933643730257 0.17644163777206046 Z M 6.234840444174589 -0.27830585201029184 L 6.614041893230814 -0.27830585201029184 L 6.614041893230814 0.10065440927124647 L 6.234840444174589 0.10065440927124647 Z M 6.689883388980933 0.17644163777206046 L 6.689883388980933 -0.3540991102054726 L 6.158992918730104 -0.3540991102054726 L 6.158992918730104 0.1511772183736667 C 6.158275385100412 0.16312807260937479 6.157606089025657 0.17502465959577806 6.167422431455392 0.17644163777206046 Z" fill="#000000" transform="matrix(1,0,0,1,0,0)" fill-rule="evenodd" opacity="0.75"></path></g><g clip-path="url(#da54cf7a5-c25f-4f72-9a87-9d2ca551c38120e79664-eec2-439b-9b32-f30194beecdb)"><path d=" M 4.642187122505206 0.024861151076065457 L 4.8697055800611935 0.024861151076065457 L 4.8697055800611935 -0.2025125938151106 L 4.642187122505206 -0.2025125938151106 Z M 6.310681939924708 0.024861151076065457 L 6.538206427175062 0.024861151076065457 L 6.538206427175062 -0.2025125938151106 L 6.310681939924708 -0.2025125938151106 Z M 5.8556329654239985 -0.27830585201029184 L 6.007315956924234 -0.27830585201029184 L 6.007315956924234 -0.3540991102054726 L 5.8556329654239985 -0.3540991102054726 Z" fill="#000000" transform="matrix(1,0,0,1,0,0)" fill-rule="evenodd" opacity="0.75"></path></g><g clip-path="url(#da54cf7a5-c25f-4f72-9a87-9d2ca551c38120e79664-eec2-439b-9b32-f30194beecdb)"><path d=" M 4.793864084311076 0.7827756439447746 L 4.718028618255325 0.7827756439447746 L 4.718028618255325 0.7069823857495936 L 4.8697055800611935 0.7069823857495936 L 4.8697055800611935 0.8585689021399556 L 4.793864084311076 0.8585689021399556 Z M 4.642187122505206 0.8585689021399556 L 4.718028618255325 0.8585689021399556 L 4.718028618255325 0.9343621603351369 L 4.642187122505206 0.9343621603351369 Z M 5.4005900206176545 1.4648968786183028 L 5.5438434993926045 1.4648968786183028 C 5.562855125732255 1.4711677607601474 5.54714174221144 1.5121335042906214 5.552273012117892 1.5322666537825633 C 5.5433128862882945 1.5513807849264556 5.499302147102405 1.5354684214915248 5.476431516367773 1.5406841071191166 L 5.476431516367773 1.6922645938151113 L 5.62811450786801 1.6922645938151113 L 5.62811450786801 1.4648968786183028 L 5.552273012117892 1.4648968786183028 L 5.552273012117892 1.3975210737596748 C 5.558549923954104 1.3785335661974927 5.599539786262046 1.3942348903295734 5.61969102483709 1.3891036204231215 C 5.638805155980982 1.398063746252719 5.622892792546051 1.4420322775780383 5.62811450786801 1.4648968786183028 L 5.695532520587208 1.4648968786183028 C 5.714652681425467 1.4738509747535329 5.698734288296169 1.517831565467586 5.703956003618128 1.5406841071191166 L 5.771367986642959 1.5406841071191166 C 5.790494177175586 1.5496442329487141 5.774575784046288 1.5936187939684003 5.779797499368247 1.6164773653142979 L 5.855638995118365 1.6164773653142979 L 5.855638995118365 1.6922645938151113 L 5.703956003618128 1.6922645938151113 L 5.703956003618128 1.76806388170466 L 5.62811450786801 1.76806388170466 L 5.62811450786801 1.8438511102054738 L 5.703956003618128 1.8438511102054738 L 5.703956003618128 1.76806388170466 L 5.771367986642959 1.76806388170466 C 5.790494177175586 1.7770179778398905 5.774575784046288 1.8209985685539436 5.779797499368247 1.8438511102054738 L 5.855638995118365 1.8438511102054738 L 5.855638995118365 1.7764873647355797 C 5.864599120947962 1.7573732335916878 5.908603830439485 1.7732795673322512 5.931480490868483 1.76806388170466 L 5.931480490868483 1.6164773653142979 L 5.855638995118365 1.6164773653142979 L 5.855638995118365 1.4648968786183028 L 5.788227012093534 1.4648968786183028 C 5.769100821560908 1.4559367527887053 5.785013184995838 1.411962191769019 5.779797499368247 1.3891036204231215 L 5.6365440205932975 1.3891036204231215 C 5.617411800366304 1.3801434945935245 5.633330193495603 1.3361689335738378 5.62811450786801 1.3133163919223076 L 5.56070252484318 1.3133163919223076 C 5.541576334310553 1.3043562660927104 5.557494727439851 1.260375675378657 5.552273012117892 1.2375231337271266 L 5.484861029093061 1.2375231337271266 C 5.465734838560435 1.2285569782031622 5.481653231689733 1.1845884468778431 5.476431516367773 1.1617359052263128 L 5.4005900206176545 1.1617359052263128 L 5.4005900206176545 1.0859426470311315 L 5.257336541842706 1.0859426470311315 C 5.238216381004446 1.0769764915071671 5.254128744439377 1.033001930487481 5.248913058811786 1.0101493888359505 L 5.1730655333673 1.0101493888359505 L 5.1730655333673 0.9427796136716899 C 5.1793424452035115 0.9237860764151409 5.2203323075114545 0.939481370852854 5.240483546086498 0.9343561306407695 C 5.259609736619124 0.9433162564703668 5.243691343489827 0.9872847877956861 5.248913058811786 1.0101493888359505 L 5.324754554561904 1.0101493888359505 L 5.324754554561904 0.9343561306407695 L 5.4005900206176545 0.9343561306407695 L 5.4005900206176545 0.8585689021399556 L 4.9539765885366 0.8585689021399556 C 4.9349709918913165 0.852298019998111 4.950678345717764 0.811332276467637 4.945547075811312 0.7911991269756948 C 4.954513231335277 0.7720849958318028 4.998517940826798 0.7879913295723666 5.02138857156143 0.7827756439447746 L 5.02138857156143 0.7069823857495936 L 4.9539765885366 0.7069823857495936 C 4.934850398003973 0.6980222599199961 4.950768791133271 0.6540476989003099 4.945547075811312 0.6311891275544124 L 4.8697055800611935 0.6311891275544124 L 4.8697055800611935 0.48802609419497056 C 4.879485744324725 0.4718423945135175 4.9057028554331295 0.47998248190918136 4.920264567329817 0.4796086408584175 C 4.965481245389138 0.47845093953992324 5.033472079073216 0.4804588277641866 5.088800554586261 0.4796086408584175 C 5.1079267451188874 0.48856876668801474 5.092008351989589 0.532543327707701 5.097230067311549 0.5553958693592314 L 5.1730655333673 0.5553958693592314 L 5.1730655333673 0.4796086408584175 L 5.097230067311549 0.4796086408584175 L 5.097230067311549 0.25223489596724147 L 4.945547075811312 0.25223489596724147 L 4.945547075811312 0.3280281541624226 L 5.02138857156143 0.3280281541624226 L 5.02138857156143 0.40381538266323647 L 4.9539765885366 0.40381538266323647 C 4.934850398003973 0.394855256833639 4.950768791133271 0.35088069581395276 4.945547075811312 0.3280281541624226 L 4.8697055800611935 0.3280281541624226 L 4.8697055800611935 0.40381538266323647 L 4.793864084311076 0.40381538266323647 L 4.793864084311076 0.25223489596724147 L 4.718028618255325 0.25223489596724147 L 4.718028618255325 0.40381538266323647 L 4.793864084311076 0.40381538266323647 L 4.793864084311076 0.4796086408584175 L 4.726452101286244 0.4796086408584175 C 4.707325910753618 0.4706485150288202 4.723244303882916 0.426673954009134 4.718028618255325 0.40381538266323647 L 4.642187122505206 0.40381538266323647 L 4.642187122505206 0.25223489596724147 L 4.490504131004969 0.25223489596724147 L 4.490504131004969 0.3280281541624226 L 4.557922143724167 0.3280281541624226 C 4.5770423045624264 0.33698827999201986 4.561123911433128 0.38095681131733894 4.566345626755088 0.40381538266323647 L 4.642187122505206 0.40381538266323647 L 4.642187122505206 0.4711911875218642 C 4.635904180974627 0.4901786950840461 4.594920348361051 0.47448340064633276 4.574769109786008 0.4796086408584175 C 4.5556489489477485 0.4706485150288202 4.57156131238268 0.426673954009134 4.566345626755088 0.40381538266323647 L 4.490504131004969 0.40381538266323647 L 4.490504131004969 0.5553958693592314 L 4.709599105530037 0.5553958693592314 C 4.72860470217532 0.5616727811954432 4.712897348348872 0.6026385247259174 4.718028618255325 0.6227716742178593 C 4.709056433036992 0.6418797756673844 4.665051723545471 0.6259734419268204 4.642187122505206 0.6311891275544124 L 4.642187122505206 0.7069823857495936 L 4.574769109786008 0.7069823857495936 C 4.5556489489477485 0.6980222599199961 4.57156131238268 0.6540476989003099 4.566345626755088 0.6311891275544124 L 4.490504131004969 0.6311891275544124 L 4.490504131004969 0.7069823857495936 L 4.566345626755088 0.7069823857495936 L 4.566345626755088 0.7743521609138544 C 4.5573794712311235 0.7934662920577464 4.513374761739601 0.7775539286228155 4.490504131004969 0.7827756439447746 L 4.490504131004969 0.8585689021399556 L 4.566345626755088 0.8585689021399556 L 4.566345626755088 1.0017259058050303 C 4.5573794712311235 1.0208400369489223 4.513374761739601 1.0049276735139914 4.490504131004969 1.0101493888359505 L 4.490504131004969 1.0859426470311315 L 4.566345626755088 1.0859426470311315 L 4.566345626755088 1.0101493888359505 L 4.633757609779918 1.0101493888359505 C 4.652883800312545 1.0191095146655478 4.636965407183247 1.063084075685234 4.642187122505206 1.0859426470311315 L 4.8697055800611935 1.0859426470311315 L 4.8697055800611935 1.0101493888359505 L 4.793864084311076 1.0101493888359505 L 4.793864084311076 0.9343561306407695 L 5.088800554586261 0.9343561306407695 C 5.105002343350816 0.9441242355155661 5.096856226260785 0.9703292872352365 5.097230067311549 0.9848849694375568 C 5.098436006184981 1.032061298166204 5.096343702239577 1.1045020462932453 5.097230067311549 1.1617359052263125 L 5.1730655333673 1.1617359052263125 L 5.1730655333673 1.2375231337271266 L 5.316325041836616 1.2375231337271266 C 5.335451232369243 1.246483259556724 5.319526809545577 1.2904517908820428 5.3247545545619035 1.3133163919223076 L 5.1814950460925875 1.3133163919223076 C 5.162374885254328 1.3043562660927104 5.178293278383626 1.2603756753786568 5.1730655333673 1.2375231337271266 L 5.097230067311549 1.2375231337271266 L 5.097230067311549 1.3891036204231215 L 5.240483546086498 1.3891036204231215 C 5.259609736619124 1.398063746252719 5.243691343489826 1.4420322775780383 5.248913058811786 1.4648968786183028 L 5.3247545545619035 1.4648968786183028 L 5.3247545545619035 1.6164773653142979 L 5.1814950460925875 1.6164773653142979 C 5.162374885254328 1.6075172394847004 5.178293278383626 1.5635426784650142 5.1730655333673 1.5406841071191166 L 5.097230067311549 1.5406841071191166 L 5.097230067311549 1.6164773653142979 L 5.1730655333673 1.6164773653142979 L 5.1730655333673 1.6838531701729258 C 5.164105407537702 1.7029612716224507 5.120100698046181 1.6870549378818869 5.097230067311549 1.6922645938151117 L 5.097230067311549 1.8438511102054738 L 5.1730655333673 1.8438511102054738 L 5.1730655333673 1.76806388170466 L 5.240483546086498 1.76806388170466 C 5.259609736619124 1.7770179778398905 5.243691343489826 1.8209985685539436 5.248913058811786 1.8438511102054738 L 5.3247545545619035 1.8438511102054738 L 5.3247545545619035 1.76806388170466 L 5.392166537586735 1.76806388170466 C 5.411292728119361 1.7770179778398905 5.395368305295696 1.8209985685539436 5.4005900206176545 1.8438511102054738 L 5.552273012117892 1.8438511102054738 L 5.552273012117892 1.76806388170466 L 5.409019533342942 1.76806388170466 C 5.401856256434758 1.7696135131570194 5.401072396167027 1.7647776982745589 5.4005900206176545 1.7596403986737397 Z" fill="#000000" transform="matrix(1,0,0,1,0,0)" fill-rule="evenodd" opacity="0.75"></path></g><g clip-path="url(#da54cf7a5-c25f-4f72-9a87-9d2ca551c38120e79664-eec2-439b-9b32-f30194beecdb)"><path d=" M 5.695532520587208 -0.12672536531429657 L 5.552279041812259 -0.12672536531429657 L 5.552279041812259 -0.20251862350947758 L 5.703956003618128 -0.20251862350947758 C 5.709177718940087 -0.17966005216358005 5.693265355505156 -0.13568549114389394 5.712385516343415 -0.12672536531429657 L 5.855645024812732 -0.12672536531429657 L 5.855645024812732 -0.050932107119115555 L 5.703956003618128 -0.050932107119115555 C 5.698740317990536 -0.07379067846501297 5.714652681425467 -0.11776523948469919 5.695532520587208 -0.12672536531429657 M 5.628120537562377 0.25223489596724147 L 5.628120537562377 -0.04251465378256236 C 5.6343914197042215 -0.061508191039111315 5.6753812820121645 -0.04580686690703095 5.695532520587208 -0.050932107119115555 C 5.714652681425467 -0.041978010983885206 5.698740317990536 0.0020025797301680415 5.703956003618128 0.02485512138169843 L 5.7798035290626135 0.02485512138169843 L 5.7798035290626135 0.10064837957687955 L 5.855645024812732 0.10064837957687955 L 5.855645024812732 0.16801815474114024 C 5.849362083282153 0.18700566230332216 5.808378250668577 0.17131036786560883 5.788227012093534 0.17644163777206046 C 5.769100821560907 0.1674815119424632 5.785013184995838 0.12350695092277697 5.7798035290626135 0.10064837957687955 L 5.703956003618128 0.10064837957687955 L 5.703956003618128 0.17644163777206046 L 5.7798035290626135 0.17644163777206046 L 5.7798035290626135 0.25223489596724147 L 5.931480490868483 0.25223489596724147 L 5.931480490868483 0.10906583291343253 C 5.940446646392448 0.08995773146390773 5.984451355883969 0.10585803551010431 6.007321986618601 0.10064837957687955 L 6.007321986618601 0.39539189963231625 C 5.998355831094637 0.4145060307762083 5.954351121603115 0.3985936673412773 5.931480490868483 0.40381538266323647 L 5.931480490868483 0.47960261116405034 L 6.08316348236872 0.47960261116405034 L 6.08316348236872 0.40381538266323647 L 6.150575465393551 0.40381538266323647 C 6.16969562623181 0.41277550849283395 6.153783262796879 0.45675006951251995 6.158998948424471 0.47960261116405034 L 6.234840444174589 0.47960261116405034 L 6.234840444174589 0.5553958693592316 L 5.939910003593771 0.5553958693592316 C 5.920783813061144 0.5464357435296343 5.936702206190443 0.5024611825099479 5.931480490868483 0.47960261116405056 L 5.855645024812732 0.47960261116405056 L 5.855645024812732 0.5553958693592316 L 5.712385516343415 0.5553958693592316 C 5.693265355505156 0.5464357435296343 5.709177718940087 0.5024611825099479 5.703956003618128 0.47960261116405056 L 5.552279041812259 0.47960261116405056 L 5.552279041812259 0.5553958693592316 L 5.695532520587208 0.5553958693592316 C 5.714652681425467 0.5643559951888288 5.698740317990536 0.6083305562085153 5.703956003618128 0.6311830978600457 L 5.9230570078375635 0.6311830978600457 C 5.942177168675823 0.6401432236896429 5.926258775546524 0.6841177847093294 5.931480490868483 0.7069763560552267 L 6.007321986618601 0.7069763560552267 L 6.007321986618601 0.7827696142504077 L 6.08316348236872 0.7827696142504077 L 6.08316348236872 0.6396065808909659 C 6.092937616937884 0.6234168515151455 6.119154728046288 0.6315569389108096 6.133722469637343 0.6311830978600457 C 6.1809349765321935 0.6299771589866137 6.253417932519804 0.632075492626385 6.310681939924708 0.6311830978600457 L 6.310681939924708 0.47960261116405056 L 6.234840444174589 0.47960261116405056 L 6.234840444174589 0.32802212446805545 L 6.378093922949539 0.32802212446805545 C 6.393355079392816 0.3339493140309724 6.386215921262101 0.37589186804892627 6.386523435674826 0.4038153826632367 C 6.387246998998885 0.46873107222006394 6.3859928225705165 0.5565294519002577 6.386523435674826 0.6311830978600457 L 6.462364931424944 0.6311830978600457 L 6.462364931424944 0.7827696142504077 L 6.538206427175062 0.7827696142504077 L 6.538206427175062 0.9343501009464026 L 6.614041893230814 0.9343501009464026 L 6.614041893230814 1.0017198761106634 C 6.6050877970955835 1.0208340072545554 6.561077057909695 1.0049276735139918 6.538206427175062 1.0101433591415836 L 6.538206427175062 1.1617298755319456 L 6.6898894186753 1.1617298755319456 L 6.6898894186753 0.9343501009464024 L 6.614041893230814 0.9343501009464024 L 6.614041893230814 0.782715347001103 L 6.6898894186753 0.7827696142504077 L 6.6898894186753 0.7069763560552265 L 6.53736226996366 0.7069763560552265 L 6.538206427175062 0.6311830978600455 L 6.462364931424944 0.6311830978600455 L 6.462364931424944 0.5553958693592316 L 6.539725910155587 0.5553958693592316 C 6.539725910155587 0.5553958693592316 6.538206427175062 0.607679349216862 6.538206427175062 0.6311830978600455 L 6.6898894186753 0.6311830978600455 L 6.6898894186753 0.5553958693592316 L 6.614041893230814 0.5553958693592316 L 6.614041893230814 0.40381538266323647 L 6.470788414455864 0.40381538266323647 C 6.451668253617605 0.3948552568336392 6.467580617052536 0.35087466611958584 6.462364931424944 0.32802212446805545 L 6.386523435674826 0.32802212446805545 L 6.386523435674826 0.2522348959672416 L 6.158998948424471 0.2522348959672416 L 6.158998948424471 0.32802212446805545 L 6.08316348236872 0.32802212446805545 L 6.08316348236872 -0.050932107119115444 L 6.007321986618601 -0.050932107119115444 L 6.007321986618601 0.02485512138169854 L 5.931480490868483 0.02485512138169854 L 5.931480490868483 -0.12672536531429657 L 6.08316348236872 -0.12672536531429657 L 6.08316348236872 -0.20251862350947758 L 5.931480490868483 -0.20251862350947758 L 5.931480490868483 -0.12672536531429657 L 5.864068507843652 -0.12672536531429657 C 5.844942317311026 -0.13568549114389394 5.860854680745957 -0.17966005216358005 5.855645024812732 -0.20251862350947758 L 5.712385516343415 -0.20251862350947758 C 5.693379919698133 -0.20878950565132237 5.709093303218947 -0.24975524918179648 5.703956003618128 -0.2698883986737384 C 5.712922159142093 -0.28900252981763047 5.756926868633615 -0.27309016638269945 5.7798035290626135 -0.27831188170465865 L 5.7798035290626135 -0.3541051398998397 L 5.703956003618128 -0.3541051398998397 L 5.703956003618128 -0.27831188170465865 L 5.560702524843179 -0.27831188170465865 C 5.541576334310553 -0.287272007534256 5.557494727439851 -0.33124053885957505 5.552279041812259 -0.3541051398998397 L 5.400596050312022 -0.3541051398998397 L 5.400596050312022 -0.2867233053468446 C 5.391635924482425 -0.2676212335916868 5.347625185296536 -0.28352756733225065 5.3247545545619035 -0.27831188170465865 L 5.3247545545619035 -0.20251862350947758 L 5.181501075786954 -0.20251862350947758 C 5.162495479141671 -0.20878950565132237 5.178202832968119 -0.24975524918179648 5.173071563061667 -0.2698883986737384 C 5.182037718585631 -0.28900252981763047 5.226048457771521 -0.27309016638269945 5.248913058811786 -0.27831188170465865 L 5.248913058811786 -0.3541051398998397 L 5.173071563061667 -0.3541051398998397 L 5.173071563061667 -0.27831188170465865 L 5.097230067311549 -0.27831188170465865 L 5.097230067311549 -0.12672536531429657 L 5.16464205033638 -0.12672536531429657 C 5.183774270563373 -0.11776523948469919 5.167855877434075 -0.07379067846501297 5.173071563061667 -0.050932107119115555 L 5.400596050312022 -0.050932107119115555 L 5.400596050312022 -0.12672536531429657 L 5.476431516367773 -0.12672536531429657 L 5.476431516367773 0.10064837957687955 L 5.552279041812259 0.10064837957687955 L 5.552279041812259 0.2522348959672416 L 5.628120537562377 0.2522348959672416 L 5.628120537562377 0.31959864143713523 C 5.6191483523440455 0.3387127725810273 5.575149672546891 0.3228004091460963 5.552279041812259 0.32802212446805545 L 5.552279041812259 0.40381538266323647 L 5.695532520587208 0.40381538266323647 C 5.714652681425467 0.41277550849283395 5.698740317990536 0.45675006951251995 5.703956003618128 0.47960261116405034 L 5.7798035290626135 0.47960261116405034 L 5.7798035290626135 0.40381538266323647 L 5.703956003618128 0.40381538266323647 L 5.703956003618128 0.2522348959672416 Z" fill="#000000" transform="matrix(1,0,0,1,0,0)" fill-rule="evenodd" opacity="0.75"></path></g><g clip-path="url(#da54cf7a5-c25f-4f72-9a87-9d2ca551c38120e79664-eec2-439b-9b32-f30194beecdb)"><path d=" M 6.614041893230814 0.40381538266323647 L 6.689883388980933 0.40381538266323647 L 6.689883388980933 0.32802212446805545 L 6.622465376261735 0.32802212446805545 C 6.6033452154234755 0.3190680283328253 6.619263608552773 0.27508743761877186 6.614041893230814 0.2522348959672416 L 6.462358901730577 0.2522348959672416 L 6.462358901730577 0.32802212446805545 L 6.605618410199893 0.32802212446805545 C 6.6247446007325195 0.3369822502976527 6.608820177908855 0.3809628410117061 6.614041893230814 0.40381538266323647" fill="#000000" transform="matrix(1,0,0,1,0,0)" fill-rule="evenodd" opacity="0.75"></path></g><g clip-path="url(#da54cf7a5-c25f-4f72-9a87-9d2ca551c38120e79664-eec2-439b-9b32-f30194beecdb)"><path d=" M 6.614041893230814 1.5406841071191166 L 6.689883388980933 1.5406841071191166 L 6.689883388980933 1.4648908489239354 L 6.614041893230814 1.4648908489239354 L 6.614041893230814 1.3217338452588605 C 6.623014078449145 1.3026197141149687 6.6670127582463 1.3185260478555325 6.689883388980933 1.3133043325335734 L 6.689883388980933 1.2375171040327595 L 6.546629910205983 1.2375171040327595 C 6.527503719673357 1.228556978203162 6.543422112802655 1.184588446877843 6.538200397480695 1.1617238458375785 L 6.462358901730577 1.1617238458375785 L 6.462358901730577 1.3133043325335734 L 6.538200397480695 1.3133043325335734 L 6.538200397480695 1.3806801373922013 C 6.529234241956731 1.3997942685360931 6.485229532465209 1.3838879347955293 6.462358901730577 1.3891036204231215 L 6.462358901730577 1.4648908489239354 L 6.605618410199893 1.4648908489239354 C 6.6247446007325195 1.4738509747535329 6.608820177908855 1.517831565467586 6.614041893230814 1.5406841071191166" fill="#000000" transform="matrix(1,0,0,1,0,0)" fill-rule="evenodd" opacity="0.75"></path></g><g clip-path="url(#da54cf7a5-c25f-4f72-9a87-9d2ca551c38120e79664-eec2-439b-9b32-f30194beecdb)"><path d=" M 6.614041893230814 1.6922645938151113 L 6.689883388980933 1.6922645938151113 L 6.689883388980933 1.61647133561993 L 6.622465376261735 1.61647133561993 C 6.6033452154234755 1.6075172394847 6.619263608552773 1.5635366487706468 6.614041893230814 1.5406841071191162 L 6.538200397480695 1.5406841071191162 L 6.538200397480695 1.61647133561993 L 6.605618410199893 1.61647133561993 C 6.6247446007325195 1.6254314614495275 6.608820177908855 1.6694120521635807 6.614041893230814 1.6922645938151113" fill="#000000" transform="matrix(1,0,0,1,0,0)" fill-rule="evenodd" opacity="0.75"></path></g><g clip-path="url(#da54cf7a5-c25f-4f72-9a87-9d2ca551c38120e79664-eec2-439b-9b32-f30194beecdb)"><path d=" M 6.083157452674353 1.2375171040327595 L 6.310681939924708 1.2375171040327595 L 6.310681939924708 1.4648968786183028 L 6.083157452674353 1.4648968786183028 Z M 6.007321986618601 1.0859366173367644 L 5.931480490868483 1.0859366173367644 L 5.931480490868483 0.9343561306407693 L 5.8556329654239985 0.9343561306407693 L 5.8556329654239985 0.8585628724455883 L 6.007321986618601 0.8585628724455883 C 6.012531642551826 0.8814154140971187 5.996619279116896 0.925396004811172 6.015745469649522 0.9343561306407693 L 6.158992918730104 0.9343561306407693 L 6.158992918730104 1.0101433591415832 L 6.007321986618601 1.0101433591415832 L 6.007321986618601 1.0859366173367644 L 6.083157452674353 1.0859366173367644 L 6.083157452674353 1.1617298755319452 L 6.007321986618601 1.1617298755319452 Z M 6.614041893230814 1.6922645938151113 L 6.546629910205983 1.6922645938151113 C 6.527509749367724 1.6833044679855138 6.543422112802655 1.639329906965828 6.538200397480695 1.6164713356199305 L 6.462358901730577 1.6164713356199305 L 6.462358901730577 1.4648908489239358 L 6.3865174059804595 1.4648908489239358 L 6.3865174059804595 1.1617298755319456 L 6.2432639272055095 1.1617298755319456 C 6.224258330560227 1.155458993390101 6.239971714081042 1.1144932498596267 6.23484044417459 1.0943540706733177 C 6.243806599698555 1.0752459692237926 6.287811309190076 1.0911523029643566 6.310681939924708 1.0859366173367646 L 6.310681939924708 1.0101433591415836 L 6.2432639272055095 1.0101433591415836 C 6.22414376636725 1.0011892630063532 6.2400561298021815 0.9572086722922999 6.23484044417459 0.9343561306407699 L 6.158992918730104 0.9343561306407699 L 6.158992918730104 0.8585628724455889 L 6.015745469649522 0.8585628724455889 C 5.996619279116896 0.8496087763103586 6.012531642551827 0.8056281855963052 6.007321986618602 0.7827756439447748 L 5.788220982399167 0.7827756439447748 C 5.76909479186654 0.7738155181151776 5.785013184995839 0.7298288977067571 5.779797499368247 0.7069763560552267 L 5.703956003618129 0.7069763560552267 L 5.703956003618129 0.6311891275544128 L 5.628114507868011 0.6311891275544128 L 5.628114507868011 0.7827756439447748 L 5.695532520587209 0.7827756439447748 C 5.714652681425468 0.7917297400800052 5.698734288296169 0.8357103307940585 5.703956003618129 0.8585628724455889 L 5.779797499368247 0.8585628724455889 L 5.779797499368247 0.9343561306407699 L 5.8556329654239985 0.9343561306407699 L 5.8556329654239985 1.0775131343058444 C 5.846672839594401 1.0966332951441036 5.8026621004085115 1.0807209317091726 5.779797499368247 1.0859366173367646 L 5.779797499368247 1.1617298755319456 L 6.007321986618602 1.1617298755319456 L 6.007321986618602 1.5406841071191166 L 6.150569435699184 1.5406841071191166 C 6.16969562623181 1.5496382032543468 6.15378326279688 1.5936187939684003 6.158992918730104 1.6164713356199305 L 6.23484044417459 1.6164713356199305 L 6.23484044417459 1.5406841071191166 L 6.310681939924708 1.5406841071191166 L 6.310681939924708 1.7596343689793723 C 6.301715784400743 1.7787485001232646 6.257711074909221 1.7628421663827007 6.23484044417459 1.7680578520102925 L 6.23484044417459 1.8438511102054738 L 6.3865174059804595 1.8438511102054738 L 6.3865174059804595 1.700688076846032 C 6.395489591198791 1.6815739457021397 6.439488270995946 1.6974802794427035 6.462358901730577 1.6922645938151113 L 6.538200397480695 1.6922645938151113 L 6.538200397480695 1.8438511102054738 L 6.614041893230814 1.8438511102054738 Z" fill="#000000" transform="matrix(1,0,0,1,0,0)" fill-rule="evenodd" opacity="0.75"></path></g><g clip-path="url(#da54cf7a5-c25f-4f72-9a87-9d2ca551c38120e79664-eec2-439b-9b32-f30194beecdb)"><path d=" M 6.462358901730577 0.7827756439447746 L 6.319105422955628 0.7827756439447746 C 6.299985262117369 0.7738155181151773 6.315897625552299 0.729834927401124 6.310675910230341 0.7069823857495936 L 6.158992918730104 0.7069823857495936 L 6.158992918730104 0.8585689021399556 L 6.234834414480222 0.8585689021399556 L 6.234834414480222 0.7827756439447746 L 6.302246397505053 0.7827756439447746 C 6.321372588037679 0.7917357697743719 6.305460224602749 0.835704301099691 6.310675910230341 0.8585689021399556 L 6.3865174059804595 0.8585689021399556 L 6.3865174059804595 0.9343561306407695 L 6.462358901730577 0.9343561306407695 Z" fill="#000000" transform="matrix(1,0,0,1,0,0)" fill-rule="evenodd" opacity="0.75"></path></g><g clip-path="url(#da54cf7a5-c25f-4f72-9a87-9d2ca551c38120e79664-eec2-439b-9b32-f30194beecdb)"><path d=" M 5.779797499368247 1.3891036204231215 L 5.931480490868483 1.3891036204231215 L 5.931480490868483 1.2375171040327597 L 5.788220982399167 1.2375171040327597 C 5.76909479186654 1.2285569782031622 5.785013184995838 1.1845884468778431 5.779797499368247 1.1617238458375785 L 5.703956003618128 1.1617238458375785 L 5.703956003618128 1.0859366173367646 L 5.62811450786801 1.0859366173367646 L 5.62811450786801 1.1617238458375785 L 5.703956003618128 1.1617238458375785 L 5.703956003618128 1.3133103622279407 L 5.779797499368247 1.3133103622279407 Z" fill="#000000" transform="matrix(1,0,0,1,0,0)" fill-rule="evenodd" opacity="0.75"></path></g><g clip-path="url(#da54cf7a5-c25f-4f72-9a87-9d2ca551c38120e79664-eec2-439b-9b32-f30194beecdb)"><path d=" M 5.552273012117892 1.2375171040327595 L 5.62811450786801 1.2375171040327595 L 5.62811450786801 1.1617238458375785 L 5.552273012117892 1.1617238458375785 L 5.552273012117892 1.0101373294472162 L 5.476431516367773 1.0101373294472162 L 5.476431516367773 1.1617238458375785 L 5.543849529086971 1.1617238458375785 C 5.5629757196195975 1.1706839716671757 5.5470512967959325 1.214664562381229 5.552273012117892 1.2375171040327595" fill="#000000" transform="matrix(1,0,0,1,0,0)" fill-rule="evenodd" opacity="0.75"></path></g><g clip-path="url(#da54cf7a5-c25f-4f72-9a87-9d2ca551c38120e79664-eec2-439b-9b32-f30194beecdb)"><path d=" M 5.476431516367773 0.10064837957687955 L 5.4005900206176545 0.10064837957687955 L 5.4005900206176545 0.02485512138169854 L 5.324748524867537 0.02485512138169854 L 5.324748524867537 0.10064837957687955 L 5.4005900206176545 0.10064837957687955 L 5.4005900206176545 0.2522348959672416 L 5.476431516367773 0.2522348959672416 Z" fill="#000000" transform="matrix(1,0,0,1,0,0)" fill-rule="evenodd" opacity="0.75"></path></g><g clip-path="url(#da54cf7a5-c25f-4f72-9a87-9d2ca551c38120e79664-eec2-439b-9b32-f30194beecdb)"><path d=" M 5.173071563061667 0.4796086408584175 L 5.3247545545619035 0.4796086408584175 L 5.3247545545619035 0.40381538266323647 L 5.400596050312022 0.40381538266323647 L 5.400596050312022 0.32802212446805545 L 5.333184067287191 0.32802212446805545 C 5.314057876754565 0.31906199863845797 5.329976269883863 0.2750934673131391 5.3247545545619035 0.25222886627287433 L 5.248913058811786 0.25222886627287433 L 5.248913058811786 0.17644163777206046 L 5.173071563061667 0.17644163777206046 L 5.173071563061667 0.10907186260779977 C 5.179348474897879 0.09007832535125071 5.220338337205822 0.10577964948333118 5.240483546086498 0.10064837957687933 C 5.259609736619124 0.10960850540647671 5.243697373184194 0.15358909612053018 5.248913058811786 0.17644163777206046 L 5.3247545545619035 0.17644163777206046 L 5.3247545545619035 0.10064837957687933 L 5.257342571537073 0.10064837957687933 C 5.238222410698814 0.09168825374728196 5.254134774133744 0.04771369272759585 5.248913058811786 0.024861151076065457 L 5.173071563061667 0.024861151076065457 L 5.173071563061667 -0.050932107119115555 L 5.097230067311549 -0.050932107119115555 L 5.097230067311549 0.25222886627287433 L 5.240483546086498 0.25222886627287433 C 5.259495172426148 0.25850577810908615 5.243775759210966 0.2994715216395605 5.248913058811786 0.31960467113150215 L 5.248913058811786 0.3953979293266834 C 5.239952932982188 0.4145060307762083 5.195942193796299 0.39859969703564446 5.173071563061667 0.40381538266323647 Z" fill="#000000" transform="matrix(1,0,0,1,0,0)" fill-rule="evenodd" opacity="0.75"></path></g></g><g><path d=" M 0.45262800000000003 1.489752 L 0.607662 1.489752 C 0.6379560000000001 1.489752 0.6486480000000001 1.4772779999999999 0.6486480000000001 1.4612399999999999 C 0.6486480000000001 1.455894 0.643302 1.4452019999999999 0.636174 1.432728 C 0.6147900000000001 1.39887 0.580932 1.347192 0.580932 1.347192 C 0.7003260000000001 1.34541 0.7680420000000001 1.2705659999999999 0.7680420000000001 1.1992859999999999 L 0.7680420000000001 0.14968799999999982 C 0.7680420000000001 0.07662599999999986 0.698544 0.0017819999999997282 0.591624 0.0017819999999997282 L 0.24057000000000003 0.0017819999999997282 C 0.14434200000000003 0.0017819999999997282 0.07128000000000001 0.04989599999999972 0.07128000000000001 0.14077799999999985 L 0.07128000000000001 1.208196 C 0.07128000000000001 1.299078 0.14434200000000003 1.347192 0.24057000000000003 1.347192 L 0.32076000000000005 1.347192 L 0.39204000000000006 1.4541119999999998 C 0.40807800000000005 1.47906 0.41877000000000003 1.489752 0.45262800000000003 1.489752 M 0.310068 1.138698 L 0.310068 0.20849399999999974 C 0.310068 0.20314799999999988 0.315414 0.1978019999999998 0.32254200000000005 0.1978019999999998 L 0.51678 0.1978019999999998 C 0.523908 0.1978019999999998 0.529254 0.20314799999999988 0.529254 0.20849399999999974 L 0.529254 1.138698 C 0.529254 1.145826 0.523908 1.1511719999999999 0.51678 1.1511719999999999 L 0.32254200000000005 1.1511719999999999 C 0.315414 1.1511719999999999 0.310068 1.145826 0.310068 1.138698 M 1.3739446230468753 0.1978019999999998 C 1.3917646230468752 0.1978019999999998 1.3988926230468752 0.20492999999999983 1.3988926230468752 0.22096799999999983 L 1.3988926230468752 0.5239079999999998 C 1.3988926230468752 0.5363819999999999 1.395328623046875 0.5506379999999998 1.3561246230468753 0.5773679999999999 L 1.1797066230468751 0.6985439999999998 L 1.1797066230468751 0.1978019999999998 M 1.635898623046875 1.186812 C 1.6234246230468752 1.163646 1.5485806230468753 0.9747539999999999 1.475518623046875 0.7644779999999999 C 1.5574906230468752 0.7127999999999999 1.6376806230468752 0.6664679999999998 1.6376806230468752 0.5898419999999999 L 1.6376806230468752 0.1710719999999999 C 1.6376806230468752 0.05345999999999984 1.5628366230468753 -2.220446049250313e-16 1.443442623046875 -2.220446049250313e-16 L 0.9034966230468752 0.0017819999999997282 C 0.8785486230468752 0.0017819999999997282 0.8642926230468752 0.016037999999999775 0.8642926230468752 0.03207599999999977 C 0.8642926230468752 0.06949799999999984 0.9409186230468751 0.1104839999999998 0.9409186230468751 0.18176399999999981 L 0.9409186230468751 1.1672099999999999 C 0.9409186230468751 1.2384899999999999 0.8642926230468752 1.2794759999999998 0.8642926230468752 1.316898 C 0.8642926230468752 1.332936 0.8785486230468752 1.347192 0.9034966230468752 1.347192 L 1.2171286230468752 1.347192 C 1.2420766230468752 1.347192 1.2563326230468752 1.332936 1.2563326230468752 1.316898 C 1.2563326230468752 1.2794759999999998 1.1797066230468751 1.2384899999999999 1.1797066230468751 1.1672099999999999 L 1.1797066230468751 0.9676259999999999 C 1.1797066230468751 0.956934 1.1814886230468753 0.9515879999999999 1.1868346230468751 0.948024 L 1.252768623046875 0.9070379999999999 C 1.252768623046875 0.9070379999999999 1.3775086230468752 1.226016 1.3775086230468752 1.245618 C 1.3775086230468752 1.284822 1.3365226230468752 1.290168 1.3365226230468752 1.316898 C 1.3365226230468752 1.332936 1.3525606230468752 1.347192 1.3775086230468752 1.347192 L 1.6857946230468752 1.347192 C 1.7053966230468753 1.347192 1.7232166230468753 1.332936 1.7232166230468753 1.316898 C 1.7232166230468753 1.2776939999999999 1.6893586230468753 1.281258 1.635898623046875 1.186812 M 2.0956972587890625 0.18176399999999981 C 2.0956972587890625 0.1104839999999998 2.1723232587890626 0.06949799999999984 2.1723232587890626 0.03207599999999977 C 2.1723232587890626 0.016037999999999775 2.1580672587890626 0.0017819999999997282 2.133119258789063 0.0017819999999997282 L 1.8194872587890625 0.0017819999999997282 C 1.7945392587890625 0.0017819999999997282 1.7802832587890625 0.016037999999999775 1.7802832587890625 0.03207599999999977 C 1.7802832587890625 0.06949799999999984 1.8569092587890625 0.1104839999999998 1.8569092587890625 0.18176399999999981 L 1.8569092587890625 1.1672099999999999 C 1.8569092587890625 1.2384899999999999 1.7802832587890625 1.2794759999999998 1.7802832587890625 1.316898 C 1.7802832587890625 1.332936 1.7945392587890625 1.347192 1.8194872587890625 1.347192 L 2.133119258789063 1.347192 C 2.1580672587890626 1.347192 2.1723232587890626 1.332936 2.1723232587890626 1.316898 C 2.1723232587890626 1.2794759999999998 2.0956972587890625 1.2384899999999999 2.0956972587890625 1.1672099999999999 M 2.5643806611328124 0.16394399999999987 C 2.5643806611328124 0.11404799999999993 2.6214046611328126 0.06949799999999984 2.6214046611328126 0.03207599999999977 C 2.6214046611328126 0.016037999999999775 2.6071486611328125 0.0017819999999997282 2.5822006611328123 0.0017819999999997282 L 2.2685686611328126 0.0017819999999997282 C 2.2436206611328124 0.0017819999999997282 2.2293646611328124 0.016037999999999775 2.2293646611328124 0.03207599999999977 C 2.2293646611328124 0.06949799999999984 2.2988626611328122 0.11939399999999978 2.3149006611328122 0.18354599999999976 L 2.5768546611328125 1.1832479999999999 C 2.5822006611328123 1.201068 2.5839826611328123 1.2153239999999998 2.5839826611328123 1.226016 C 2.5822006611328123 1.2545279999999999 2.5483426611328124 1.28304 2.5483426611328124 1.316898 C 2.5483426611328124 1.332936 2.5625986611328124 1.347192 2.5875466611328126 1.347192 L 2.8797946611328125 1.347192 C 2.9047426611328127 1.347192 2.9189986611328127 1.332936 2.9189986611328127 1.316898 C 2.9189986611328127 1.28304 2.8851406611328123 1.2545279999999999 2.8833586611328124 1.226016 C 2.8833586611328124 1.2153239999999998 2.8851406611328123 1.201068 2.8904866611328126 1.1832479999999999 L 3.1524406611328124 0.18354599999999976 C 3.1684786611328124 0.11939399999999978 3.2379766611328122 0.06949799999999984 3.2379766611328122 0.03207599999999977 C 3.2379766611328122 0.016037999999999775 3.2237206611328126 0.0017819999999997282 3.1987726611328124 0.0017819999999997282 L 2.8851406611328123 0.0017819999999997282 C 2.8601926611328126 0.0017819999999997282 2.8459366611328125 0.016037999999999775 2.8459366611328125 0.03207599999999977 C 2.8459366611328125 0.06949799999999984 2.9029606611328127 0.11404799999999993 2.9029606611328127 0.16394399999999987 L 2.7336706611328125 0.8660519999999998 M 3.46251301171875 1.347192 L 3.81356701171875 1.347192 C 3.92226901171875 1.347192 3.9899850117187503 1.267002 3.9899850117187503 1.19394 L 3.9899850117187503 0.1550339999999999 C 3.9899850117187503 0.07662599999999986 3.92048701171875 0.0017819999999997282 3.81356701171875 0.0017819999999997282 L 3.46251301171875 0.0017819999999997282 C 3.36806701171875 0.0017819999999997282 3.2932230117187498 0.05167799999999989 3.2932230117187498 0.14612399999999992 L 3.2932230117187498 1.20285 C 3.2932230117187498 1.2955139999999998 3.36628501171875 1.347192 3.46251301171875 1.347192 M 3.53201101171875 1.138698 L 3.53201101171875 0.2102759999999999 C 3.53201101171875 0.20314799999999988 3.53735701171875 0.1978019999999998 3.54448501171875 0.1978019999999998 L 3.7387230117187498 0.1978019999999998 C 3.74585101171875 0.1978019999999998 3.75119701171875 0.20314799999999988 3.75119701171875 0.2102759999999999 L 3.75119701171875 1.138698 C 3.75119701171875 1.1440439999999998 3.74585101171875 1.1511719999999999 3.7387230117187498 1.1511719999999999 L 3.54448501171875 1.1511719999999999 C 3.53735701171875 1.1511719999999999 3.53201101171875 1.1440439999999998 3.53201101171875 1.138698" fill="#ffffff" fill-rule="nonzero"></path></g><g></g></g><defs><clipPath id="SvgjsClipPath32222"><path d=" M 4.161279803710937 -0.6915901484768792 h 2.85746010120763 v 2.8729322969537585 h -2.85746010120763 Z"></path></clipPath><clipPath id="aa54cf7a5-c25f-4f72-9a87-9d2ca551c38120e79664-eec2-439b-9b32-f30194beecdb"><path d=" M 4.161276788863754 2.181345163324063 L 7.018742919765751 2.181345163324063 L 7.018742919765751 -0.6915931633240623 L 4.161276788863754 -0.6915931633240623 Z"></path></clipPath><clipPath id="SvgjsClipPath3221720e79664-eec2-439b-9b32-f30194beecdb"><path d=" M 4.161279803710937 -0.6915901484768792 L 7.018739904918567 -0.6915901484768792 L 7.018739904918567 2.1813421484768796 L 4.161279803710937 2.1813421484768796 Z"></path></clipPath><clipPath id="da54cf7a5-c25f-4f72-9a87-9d2ca551c38120e79664-eec2-439b-9b32-f30194beecdb"><path d=" M 4.487929451510193 1.8450329303014368 L 6.691071238771262 1.8450329303014368 L 6.691071238771262 -0.3552809303014357 L 4.487929451510193 -0.3552809303014357 Z"></path></clipPath></defs></svg>